<svg id="visual" viewBox="0 0 900 600" width="900" height="600" xmlns="http://www.w3.org/2000/svg" xmlns:xlink="http://www.w3.org/1999/xlink" version="1.1"><path d="M0 109L82 103L164 73L245 85L327 67L409 133L491 79L573 121L655 79L736 73L818 97L900 121L900 0L818 0L736 0L655 0L573 0L491 0L409 0L327 0L245 0L164 0L82 0L0 0Z" fill="#038373"></path><path d="M0 265L82 193L164 265L245 211L327 247L409 277L491 295L573 355L655 235L736 319L818 397L900 253L900 119L818 95L736 71L655 77L573 119L491 77L409 131L327 65L245 83L164 71L82 101L0 107Z" fill="#00b087"></path><path d="M0 379L82 289L164 319L245 319L327 301L409 337L491 361L573 421L655 301L736 379L818 463L900 349L900 251L818 395L736 317L655 233L573 353L491 293L409 275L327 245L245 209L164 263L82 191L0 263Z" fill="#00cc8e"></path><path d="M0 475L82 379L164 409L245 415L327 391L409 397L491 421L573 517L655 403L736 481L818 505L900 397L900 347L818 461L736 377L655 299L573 419L491 359L409 335L327 299L245 317L164 317L82 287L0 377Z" fill="#00b087"></path><path d="M0 601L82 601L164 601L245 601L327 601L409 601L491 601L573 601L655 601L736 601L818 601L900 601L900 395L818 503L736 479L655 401L573 515L491 419L409 395L327 389L245 413L164 407L82 377L0 473Z" fill="#038373"></path></svg>